<svg width="71" height="54" viewBox="0 0 71 54" fill="none" xmlns="http://www.w3.org/2000/svg">
<path d="M60.075 4.48759C55.5782 2.39563 50.7095 0.877273 45.6379 0C45.5487 0.00126768 45.4637 0.0376511 45.4012 0.101225C44.7926 1.21469 44.0826 2.66556 43.6093 3.77902C38.23 2.96974 32.7595 2.96974 27.3803 3.77902C26.9069 2.63182 26.1969 1.21469 25.5545 0.101225C25.5207 0.033742 25.4193 0 25.3178 0C20.2463 0.877273 15.4114 2.39563 10.8808 4.48759C10.8469 4.48759 10.8131 4.52133 10.7793 4.55507C1.58288 18.2878 -0.9529 31.6493 0.298087 44.8759C0.298087 44.9434 0.331897 45.0108 0.399518 45.0446C6.4854 49.4984 12.3346 52.1977 18.1162 53.986C18.2176 54.0198 18.3191 53.986 18.3529 53.9185C19.7053 52.0628 20.9225 50.1058 21.9706 48.0476C22.0382 47.9126 21.9706 47.7776 21.8353 47.7439C19.9081 47.0016 18.0824 46.1243 16.2904 45.1121C16.1552 45.0446 16.1552 44.8421 16.2566 44.7409C16.6285 44.471 17.0005 44.1673 17.3724 43.8974C17.44 43.8299 17.5414 43.8299 17.609 43.8636C29.2398 49.161 41.7835 49.161 53.2791 43.8636C53.3467 43.8299 53.4481 43.8299 53.5157 43.8974C53.8877 44.2011 54.2596 44.471 54.6315 44.7747C54.7667 44.8759 54.7667 45.0783 54.5977 45.1458C52.8395 46.1918 50.98 47.0353 49.0528 47.7776C48.9175 47.8114 48.8837 47.9801 48.9175 48.0813C49.9995 50.1395 51.2166 52.0965 52.5352 53.9523C52.6367 53.986 52.7381 54.0198 52.8395 53.986C58.6549 52.1977 64.5041 49.4984 70.59 45.0446C70.6576 45.0108 70.6914 44.9434 70.6914 44.8759C72.1791 29.5911 68.2233 16.3308 60.2102 4.55507C60.1764 4.52133 60.1426 4.48759 60.075 4.48759ZM23.7287 36.8117C20.2463 36.8117 17.3386 33.6063 17.3386 29.6586C17.3386 25.7108 20.1786 22.5054 23.7287 22.5054C27.3126 22.5054 30.1527 25.7446 30.1189 29.6586C30.1189 33.6063 27.2788 36.8117 23.7287 36.8117ZM47.2946 36.8117C43.8121 36.8117 40.9044 33.6063 40.9044 29.6586C40.9044 25.7108 43.7445 22.5054 47.2946 22.5054C50.8785 22.5054 53.7186 25.7446 53.6848 29.6586C53.6848 33.6063 50.8785 36.8117 47.2946 36.8117Z" fill="white"/>
</svg>
