<svg width="65" height="64" viewBox="0 0 65 64" fill="none" xmlns="http://www.w3.org/2000/svg">
<path d="M32.5 0C28.232 0 24.0059 0.848254 20.0628 2.49633C16.1197 4.14441 12.5369 6.56003 9.51903 9.60528C3.4241 15.7554 0 24.0968 0 32.7945C0 47.2896 9.3275 59.5875 22.23 63.9492C23.855 64.2116 24.375 63.1949 24.375 62.3095V56.7672C15.3725 58.7349 13.455 52.3728 13.455 52.3728C11.96 48.5686 9.8475 47.552 9.8475 47.552C6.89 45.5187 10.075 45.5843 10.075 45.5843C13.325 45.8139 15.0475 48.9621 15.0475 48.9621C17.875 53.9469 22.6525 52.4711 24.505 51.6841C24.7975 49.5524 25.6425 48.1095 26.5525 47.2896C19.3375 46.4698 11.765 43.6494 11.765 31.1547C11.765 27.5146 13 24.5958 15.1125 22.2674C14.7875 21.4476 13.65 18.037 15.4375 13.6097C15.4375 13.6097 18.1675 12.7243 24.375 16.9547C26.9425 16.2333 29.7375 15.8725 32.5 15.8725C35.2625 15.8725 38.0575 16.2333 40.625 16.9547C46.8325 12.7243 49.5625 13.6097 49.5625 13.6097C51.35 18.037 50.2125 21.4476 49.8875 22.2674C52 24.5958 53.235 27.5146 53.235 31.1547C53.235 43.6822 45.63 46.437 38.3825 47.2568C39.5525 48.2734 40.625 50.2739 40.625 53.3238V62.3095C40.625 63.1949 41.145 64.2444 42.8025 63.9492C55.705 59.5547 65 47.2896 65 32.7945C65 28.4878 64.1594 24.2234 62.5261 20.2446C60.8928 16.2658 58.4989 12.6505 55.481 9.60528C52.4631 6.56003 48.8803 4.14441 44.9372 2.49633C40.9941 0.848254 36.768 0 32.5 0Z" fill="white"/>
</svg>
