<svg width="42" height="40" viewBox="0 0 42 40" fill="none" xmlns="http://www.w3.org/2000/svg">
<path d="M41.65 35.906L30.03 25.016C32.41 21.914 33.6 17.954 32.97 13.73C31.92 6.668 25.83 1.058 18.2 0.397997C7.90996 -0.592002 -0.840042 7.658 0.209958 17.426C0.909958 24.488 6.85996 30.362 14.35 31.352C18.83 31.946 22.96 30.758 26.32 28.58L37.94 39.536C38.43 39.998 39.27 39.998 39.76 39.536L41.58 37.82C42.14 37.226 42.14 36.434 41.65 35.906ZM5.38996 15.842C5.38996 10.034 10.43 5.216 16.66 5.216C22.89 5.216 27.93 9.968 27.93 15.842C27.93 21.716 22.89 26.468 16.66 26.468C10.43 26.468 5.38996 21.782 5.38996 15.842Z" fill="#EDF2EA"/>
</svg>
